<?xml version="1.0" encoding="UTF-8" standalone="no"?>
<svg xmlns:svg="http://www.w3.org/2000/svg"
	xmlns="http://www.w3.org/2000/svg" xmlns:inkscape="http://www.inkscape.org/namespaces/inkscape"
	 viewBox="0 0 85 140" version="1.1">
	<g id="layer1" transform="translate(1200,470)">
		<path id="path26"
			style="opacity:1;fill:#3f3f3f;fill-opacity:1;stroke:none;stroke-width:0.02544px;stroke-linecap:butt;stroke-linejoin:miter;stroke-opacity:1"
			d="m -1157.366,-462.1945 c -0.085,5.3e-4 -0.18,0.0478 -0.2309,0.11364 l -34.7399,46.01108 c -0.1105,0.13511 -0.058,0.30469 0.013,0.45525 l 34.6204,75.11493 c 0.076,0.11982 0.1921,0.16045 0.3373,0.16427 0.1452,-0.004 0.2621,-0.0444 0.3374,-0.16427 l 34.6203,-75.11493 c 0.071,-0.15056 0.1237,-0.32014 0.013,-0.45525 l -34.7397,-46.01108 c -0.051,-0.0657 -0.1465,-0.11306 -0.231,-0.11364 z" />
		<path id="path77"
			style="opacity:1;fill:#ffffff;stroke:none;stroke-width:0.0417347;stroke-linecap:round;paint-order:stroke fill markers"
			inkscape:transform-center-y="-0.044101681"
			d="m -1157.366,-461.32642 -0.2219,0.26461 v 119.16554 l 0.2219,0.44694 0.2222,-0.44694 v -119.16554 z"
			inkscape:transform-center-x="-0.00014391062" />
		<path id="path100"
			style="fill:#ffffff;stroke:none;stroke-width:0.02544px;stroke-linecap:butt;stroke-linejoin:miter;stroke-opacity:1"
			d="m -1157.5879,-427.88766 -33.8077,11.63126 -0.325,0.42542 0.1339,0.27469 33.9988,11.15818 v -0.30588 l -34.0376,-11.16607 34.0376,-11.72935 z" />
		<path
			d="m -1157.1438,-427.8877 33.8076,11.63126 0.3247,0.42543 -0.1339,0.27468 -33.9984,11.15818 v -0.30588 l 34.0372,-11.16607 -34.0372,-11.72935 z"
			style="fill:#ffffff;stroke:none;stroke-width:0.02544px;stroke-linecap:butt;stroke-linejoin:miter;stroke-opacity:1"
			id="path100-8" />
		<path
			style="fill:#000000;fill-opacity:1;stroke:none;stroke-width:0.02544px;stroke-linecap:butt;stroke-linejoin:miter;stroke-opacity:1"
			d="m -1123.3362,-416.25644 -33.8076,-44.80537 v 33.17411 z" id="path149" />
		<path id="path151"
			style="opacity:1;fill:#b7494e;fill-opacity:1;stroke:none;stroke-width:0.0334562;stroke-linecap:round;paint-order:stroke fill markers"
			d="m -1157.1439,-427.59943 v 29.21373 a 17.50874,17.50874 0 0 0 17.2468,-17.50676 17.50874,17.50874 0 0 0 -1.115,-6.14792 z" />
	</g>
</svg>
